<svg height="512" viewBox="0 0 64 64" width="512" xmlns="http://www.w3.org/2000/svg"><g id="Flat"><g id="Color"><g><g><path d="m56 61h-48v-42l24-13 24 13z" fill="#93999a"/><path d="m33 52a17 17 0 0 1 -17-17v-3.528a16 16 0 0 1 8-13.859 16 16 0 0 1 15.991 0l16 9.233v-7.846l-23.991-13-24 13v42h48v-9z" fill="#656b76"/><path d="m32 9 26 15 3-5-29-16-29 16 3 5z" fill="#f9e109"/><path d="m4.352 21.254 1.648 2.746 26-15 26 15 1.648-2.746-27.648-15.254z" fill="#fcbc04"/></g><g><g><path d="m13 28v33h30v-33a3 3 0 0 1 3-3h-30a3 3 0 0 0 -3 3z" fill="#84d2f4"/><path d="m46 25a3 3 0 0 1 3 3v3a0 0 0 0 1 0 0h-6a0 0 0 0 1 0 0v-3a3 3 0 0 1 3-3z" fill="#4891d3"/></g><path d="m34 55a15 15 0 0 1 -15-15v-12a3 3 0 0 1 3-3h-6a3 3 0 0 0 -3 3v33h30v-6z" fill="#57b7eb"/><path d="m17 31h6v6h-6z" fill="#f9e109"/><path d="m17 41h6v6h-6z" fill="#f9e109"/><path d="m17 51h6v6h-6z" fill="#fcbc04"/><path d="m17 31h2v6h-2z" fill="#fcbc04"/><path d="m20.73 47h-3.73v-6h2.04a14.812 14.812 0 0 0 1.69 6z" fill="#fcbc04"/><path d="m20 35a.993.993 0 0 1 -.693-.28l-2.6-2.5a1 1 0 1 1 1.393-1.44l1.887 1.82 4.306-4.306a1 1 0 0 1 1.414 1.414l-5 5a1 1 0 0 1 -.707.292z" fill="#93999a"/><path d="m20 45a.993.993 0 0 1 -.693-.28l-2.6-2.5a1 1 0 1 1 1.393-1.44l1.887 1.82 4.306-4.306a1 1 0 0 1 1.414 1.414l-5 5a1 1 0 0 1 -.707.292z" fill="#93999a"/><path d="m31 58h-4a1 1 0 0 1 0-2h4a1 1 0 0 1 0 2z" fill="#fcbc04"/><g fill="#f9e109"><path d="m31 54h-3a1 1 0 0 1 0-2h3a1 1 0 0 1 0 2z"/><path d="m35 47h-8a1 1 0 0 1 0-2h8a1 1 0 0 1 0 2z"/><path d="m35 43h-6a1 1 0 0 1 0-2h6a1 1 0 0 1 0 2z"/><path d="m32 37h-5a1 1 0 0 1 0-2h5a1 1 0 0 1 0 2z"/><path d="m36 33h-9a1 1 0 0 1 0-2h9a1 1 0 0 1 0 2z"/></g><path d="m28.61 54h-.61a.99.99 0 0 1 -.95-.71 14.62 14.62 0 0 0 1.56.71z" fill="#fcbc04"/><path d="m28.61 54h-.61a.99.99 0 0 1 -.95-.71 14.62 14.62 0 0 0 1.56.71z" fill="#fcbc04"/><path d="m16.71 32.22a1 1 0 0 1 -.03-1.41 1.008 1.008 0 0 1 1.42-.03l.9.87v2.77z" fill="#656b76"/><path d="m19.85 44.98a.888.888 0 0 1 -.54-.26l-2.6-2.5a1 1 0 0 1 -.03-1.41 1.008 1.008 0 0 1 1.42-.03l1.01.97a14.455 14.455 0 0 0 .74 3.23z" fill="#656b76"/><path d="m19 31.65v2.77l-2.29-2.2a1 1 0 0 1 -.03-1.41 1.008 1.008 0 0 1 1.42-.03z" fill="#656b76"/><path d="m19.85 44.98a.888.888 0 0 1 -.54-.26l-2.6-2.5a1 1 0 0 1 -.03-1.41 1.008 1.008 0 0 1 1.42-.03l1.01.97a14.455 14.455 0 0 0 .74 3.23z" fill="#656b76"/></g><g><path d="m34 45h12a3 3 0 0 1 3 3v13a0 0 0 0 1 0 0h-15a3 3 0 0 1 -3-3v-10a3 3 0 0 1 3-3z" fill="#e9f1f2"/><path d="m49 57h3a4 4 0 0 1 4 4 0 0 0 0 1 0 0h-7a0 0 0 0 1 0 0v-4a0 0 0 0 1 0 0z" fill="#e9f1f2"/><path d="m48 57a12.992 12.992 0 0 1 -12.949-12h-1.051a3 3 0 0 0 -3 3v10a3 3 0 0 0 3 3h15v-4z" fill="#d0d8da"/><circle cx="40" cy="53" fill="#f9e109" r="2"/><path d="m40.81 54.83a2 2 0 0 1 -2.81-1.83 1.871 1.871 0 0 1 .09-.59 13.363 13.363 0 0 0 2.72 2.42z" fill="#fcbc04"/><path d="m40.81 54.83a2 2 0 0 1 -2.81-1.83 1.871 1.871 0 0 1 .09-.59 13.363 13.363 0 0 0 2.72 2.42z" fill="#fcbc04"/><path d="m53 59a2 2 0 0 1 -2-2h-2v4h7a3.955 3.955 0 0 0 -.555-2z" fill="#93999a"/></g><path d="m30 14h4v4h-4z" fill="#84d2f4"/><path d="m34 18h-4v-4z" fill="#57b7eb"/><path d="m30 15.6a16.031 16.031 0 0 1 4 0v-1.6h-4z" fill="#57b7eb"/><path d="m30 14v1.6c.5-.062.992-.093 1.49-.109z" fill="#4891d3"/></g></g></g></svg>